<?xml version="1.0" standalone="no"?>
<!DOCTYPE svg PUBLIC "-//W3C//DTD SVG 20010904//EN"
 "http://www.w3.org/TR/2001/REC-SVG-20010904/DTD/svg10.dtd">
<svg version="1.0" xmlns="http://www.w3.org/2000/svg"
 width="260.000000pt" height="260.000000pt" viewBox="0 0 260.000000 260.000000"
 preserveAspectRatio="xMidYMid meet">
<metadata>
Created by potrace 1.11, written by Peter Selinger 2001-2013
</metadata>
<g transform="translate(0.000000,260.000000) scale(0.100000,-0.100000)"
fill="#000000" stroke="none">
<path d="M0 1300 l0 -1300 1300 0 1300 0 0 1300 0 1300 -1300 0 -1300 0 0
-1300z m1481 1084 c546 -93 933 -576 906 -1128 -7 -150 -40 -282 -100 -410
-60 -125 -115 -205 -210 -303 -465 -479 -1245 -431 -1652 101 -335 439 -289
1058 108 1443 98 95 178 150 301 209 201 95 426 126 647 88z"/>
<path d="M1163 2245 c-191 -42 -372 -194 -475 -400 -133 -263 -158 -639 -62
-924 88 -263 249 -446 462 -528 82 -31 237 -42 334 -24 187 36 380 197 483
401 79 156 116 328 116 540 0 210 -34 366 -111 522 -54 109 -93 163 -177 245
-152 150 -366 212 -570 168z"/>
</g>
</svg>
